<svg xmlns="http://www.w3.org/2000/svg" width="1200" height="630" viewBox="0 0 1200 630">
  <defs>
    <linearGradient id="background" x1="0" y1="0" x2="1" y2="1">
      <stop stop-color="#102657"/>
      <stop offset="1" stop-color="#2484fd"/>
    </linearGradient>
    <filter id="shadow" x="-20%" y="-20%" width="140%" height="140%">
      <feDropShadow dx="0" dy="18" stdDeviation="22" flood-color="#071633" flood-opacity=".24"/>
    </filter>
  </defs>
  <rect width="1200" height="630" fill="url(#background)"/>
  <circle cx="1110" cy="-20" r="310" fill="#72b5ff" opacity=".18"/>
  <circle cx="-60" cy="600" r="310" fill="#0bdb9b" opacity=".13"/>
  <g filter="url(#shadow)">
    <rect x="96" y="114" width="156" height="156" rx="42" fill="#fff"/>
    <g transform="translate(96 112) scale(6.4)" fill="none" stroke="#2484fd" stroke-linecap="round" stroke-linejoin="round" stroke-width="1.5">
      <circle cx="6.5" cy="17" r="3.25"/>
      <circle cx="17.5" cy="17" r="3.25"/>
      <path d="M6.5 17 10 10l4 7H6.5M10 10h5l2.5 7M10 10 8.5 8H6M15 10l2-2.5h2.5"/>
    </g>
  </g>
  <text x="96" y="354" fill="#fff" font-family="Arial, sans-serif" font-size="76" font-weight="700" letter-spacing="-3">Vélib’ <tspan fill="#8bc4ff">Pulse</tspan></text>
  <text x="100" y="417" fill="#dceaff" font-family="Arial, sans-serif" font-size="30">La disponibilité Vélib’ Métropole, en direct.</text>
  <g transform="translate(96 484)">
    <rect width="278" height="60" rx="30" fill="#fff"/>
    <circle cx="31" cy="30" r="8" fill="#27c196"/>
    <text x="53" y="39" fill="#152856" font-family="Arial, sans-serif" font-size="24" font-weight="700">Données en direct</text>
  </g>
</svg>
